<svg xmlns="http://www.w3.org/2000/svg" viewBox="0 0 32 32">
  <defs>
    <linearGradient id="gradient" x1="0%" y1="0%" x2="100%" y2="100%">
      <stop offset="0%" style="stop-color:#3b82f6;stop-opacity:1" />
      <stop offset="100%" style="stop-color:#8b5cf6;stop-opacity:1" />
    </linearGradient>
  </defs>
  
  <!-- 중앙 코어 -->
  <circle cx="16" cy="16" r="4" fill="url(#gradient)"/>
  
  <!-- 센서 포인트 (8방향) -->
  <circle cx="16" cy="4" r="1.5" fill="#3b82f6"/>
  <circle cx="24.5" cy="7.5" r="1.5" fill="#3b82f6"/>
  <circle cx="28" cy="16" r="1.5" fill="#3b82f6"/>
  <circle cx="24.5" cy="24.5" r="1.5" fill="#3b82f6"/>
  <circle cx="16" cy="28" r="1.5" fill="#3b82f6"/>
  <circle cx="7.5" cy="24.5" r="1.5" fill="#3b82f6"/>
  <circle cx="4" cy="16" r="1.5" fill="#3b82f6"/>
  <circle cx="7.5" cy="7.5" r="1.5" fill="#3b82f6"/>
  
  <!-- 연결선 (네트워크) -->
  <line x1="16" y1="12" x2="16" y2="4" stroke="#8b5cf6" stroke-width="1" opacity="0.6"/>
  <line x1="18.8" y1="13.2" x2="24.5" y2="7.5" stroke="#8b5cf6" stroke-width="1" opacity="0.6"/>
  <line x1="20" y1="16" x2="28" y2="16" stroke="#8b5cf6" stroke-width="1" opacity="0.6"/>
  <line x1="18.8" y1="18.8" x2="24.5" y2="24.5" stroke="#8b5cf6" stroke-width="1" opacity="0.6"/>
  <line x1="16" y1="20" x2="16" y2="28" stroke="#8b5cf6" stroke-width="1" opacity="0.6"/>
  <line x1="13.2" y1="18.8" x2="7.5" y2="24.5" stroke="#8b5cf6" stroke-width="1" opacity="0.6"/>
  <line x1="12" y1="16" x2="4" y2="16" stroke="#8b5cf6" stroke-width="1" opacity="0.6"/>
  <line x1="13.2" y1="13.2" x2="7.5" y2="7.5" stroke="#8b5cf6" stroke-width="1" opacity="0.6"/>
  
  <!-- 외곽 링 -->
  <circle cx="16" cy="16" r="11" fill="none" stroke="url(#gradient)" stroke-width="1" opacity="0.4"/>
</svg>
